<svg width="49" height="48" viewBox="0 0 49 48" fill="none" xmlns="http://www.w3.org/2000/svg">
<path d="M46.1624 33C46.9124 33 47.5374 33.25 48.0374 33.75C48.5374 34.25 48.7874 34.875 48.7874 35.625V44.875C48.7874 46.9583 47.9124 48 46.1624 48C33.7457 48 23.079 43.5417 14.1624 34.625C5.24569 25.7083 0.787354 15.0417 0.787354 2.625C0.787354 0.875 1.82902 0 3.91235 0H13.1624C13.9124 0 14.5374 0.25 15.0374 0.75C15.5374 1.25 15.7874 1.875 15.7874 2.625C15.7874 5.875 16.2874 9 17.2874 12C17.6207 13.0833 17.4124 14 16.6624 14.75L11.5374 19.25C15.3707 27.25 21.4957 33.2917 29.9124 37.375L34.0374 32.125C34.5374 31.625 35.1624 31.375 35.9124 31.375C36.329 31.375 36.6207 31.4167 36.7874 31.5C39.7874 32.5 42.9124 33 46.1624 33Z" fill="#F4C527"/>
</svg>
