<svg width="20" height="20" viewBox="0 0 20 20" fill="none" xmlns="http://www.w3.org/2000/svg">
<path d="M16.6797 12.8125C16.9141 12.8125 17.1094 12.8906 17.2656 13.0469C17.4219 13.2031 17.5 13.3984 17.5 13.6328V16.5234C17.5 17.1745 17.2266 17.5 16.6797 17.5C12.7995 17.5 9.46615 16.1068 6.67969 13.3203C3.89323 10.5339 2.5 7.20052 2.5 3.32031C2.5 2.77344 2.82552 2.5 3.47656 2.5H6.36719C6.60156 2.5 6.79688 2.57812 6.95312 2.73438C7.10938 2.89062 7.1875 3.08594 7.1875 3.32031C7.1875 4.33594 7.34375 5.3125 7.65625 6.25C7.76042 6.58854 7.69531 6.875 7.46094 7.10938L5.85938 8.51562C7.05729 11.0156 8.97135 12.9036 11.6016 14.1797L12.8906 12.5391C13.0469 12.3828 13.2422 12.3047 13.4766 12.3047C13.6068 12.3047 13.6979 12.3177 13.75 12.3438C14.6875 12.6562 15.6641 12.8125 16.6797 12.8125Z" fill="white"/>
</svg>
