<svg width="20" height="20" viewBox="0 0 20 20" fill="none" xmlns="http://www.w3.org/2000/svg">
<path d="M16.6797 6.67969V5L10 9.17969L3.32031 5V6.67969L10 10.8203L16.6797 6.67969ZM16.6797 3.32031C17.1224 3.32031 17.5 3.48958 17.8125 3.82812C18.151 4.16667 18.3203 4.55729 18.3203 5V15C18.3203 15.4427 18.151 15.8333 17.8125 16.1719C17.5 16.5104 17.1224 16.6797 16.6797 16.6797H3.32031C2.8776 16.6797 2.48698 16.5104 2.14844 16.1719C1.83594 15.8333 1.67969 15.4427 1.67969 15V5C1.67969 4.55729 1.83594 4.16667 2.14844 3.82812C2.48698 3.48958 2.8776 3.32031 3.32031 3.32031H16.6797Z" fill="white"/>
</svg>
