<svg width="21" height="21" viewBox="0 0 21 21" fill="none" xmlns="http://www.w3.org/2000/svg">
<path d="M13.4463 10.1631C14.0713 9.53809 14.3838 8.78809 14.3838 7.91309C14.3838 6.81934 13.9932 5.88184 13.2119 5.10059C12.4307 4.31934 11.4932 3.92871 10.3994 3.92871C9.30566 3.92871 8.36816 4.31934 7.58691 5.10059C6.80566 5.88184 6.41504 6.81934 6.41504 7.91309H8.38379C8.38379 7.38184 8.58691 6.91309 8.99316 6.50684C9.39941 6.10059 9.86816 5.89746 10.3994 5.89746C10.9307 5.89746 11.3994 6.10059 11.8057 6.50684C12.2119 6.91309 12.415 7.38184 12.415 7.91309C12.415 8.44434 12.2119 8.91309 11.8057 9.31934L10.5869 10.585C9.80566 11.4287 9.41504 12.3662 9.41504 13.3975V13.9131H11.3838C11.3838 12.8818 11.7744 11.9443 12.5557 11.1006L13.4463 10.1631ZM11.3838 17.8975V15.9287H9.41504V17.8975H11.3838ZM3.32129 3.88184C5.29004 1.91309 7.64941 0.928711 10.3994 0.928711C13.1494 0.928711 15.4932 1.91309 17.4307 3.88184C19.3994 5.81934 20.3838 8.16309 20.3838 10.9131C20.3838 13.6631 19.3994 16.0225 17.4307 17.9912C15.4932 19.9287 13.1494 20.8975 10.3994 20.8975C7.64941 20.8975 5.29004 19.9287 3.32129 17.9912C1.38379 16.0225 0.415039 13.6631 0.415039 10.9131C0.415039 8.16309 1.38379 5.81934 3.32129 3.88184Z" fill="#0B2166" fill-opacity="0.6"/>
</svg>
