<svg width="23" height="13" viewBox="0 0 23 13" fill="none" xmlns="http://www.w3.org/2000/svg">
<path d="M20.3994 4.89746L22.415 6.86621L18.3838 10.8975L16.415 8.92871L14.3994 10.8975L12.3838 8.92871H12.0557C11.7744 9.70996 11.3525 10.3975 10.79 10.9912C10.2588 11.585 9.60254 12.0537 8.82129 12.3975C8.07129 12.7412 7.25879 12.9131 6.38379 12.9131C5.29004 12.9131 4.29004 12.6475 3.38379 12.1162C2.47754 11.5537 1.74316 10.8193 1.18066 9.91309C0.649414 9.00684 0.383789 8.00684 0.383789 6.91309C0.383789 5.81934 0.649414 4.81934 1.18066 3.91309C1.74316 3.00684 2.47754 2.28809 3.38379 1.75684C4.29004 1.19434 5.29004 0.913086 6.38379 0.913086C7.25879 0.913086 8.07129 1.08496 8.82129 1.42871C9.60254 1.77246 10.2588 2.24121 10.79 2.83496C11.3525 3.42871 11.7744 4.11621 12.0557 4.89746H20.3994ZM6.38379 9.91309C6.94629 9.91309 7.44629 9.78809 7.88379 9.53809C8.35254 9.25684 8.71191 8.89746 8.96191 8.45996C9.24316 7.99121 9.38379 7.47559 9.38379 6.91309C9.38379 6.35059 9.24316 5.85059 8.96191 5.41309C8.71191 4.94434 8.35254 4.58496 7.88379 4.33496C7.44629 4.05371 6.94629 3.91309 6.38379 3.91309C5.85254 3.91309 5.35254 4.05371 4.88379 4.33496C4.44629 4.58496 4.08691 4.94434 3.80566 5.41309C3.52441 5.85059 3.38379 6.35059 3.38379 6.91309C3.38379 7.47559 3.52441 7.99121 3.80566 8.45996C4.08691 8.89746 4.44629 9.25684 4.88379 9.53809C5.35254 9.78809 5.85254 9.91309 6.38379 9.91309Z" fill="#0B2166" fill-opacity="0.6"/>
</svg>
