<svg width="17" height="22" viewBox="0 0 17 22" fill="none" xmlns="http://www.w3.org/2000/svg">
<path d="M11.4932 7.92871V5.91309C11.4932 5.06934 11.1807 4.35059 10.5557 3.75684C9.96191 3.13184 9.24316 2.81934 8.39941 2.81934C7.55566 2.81934 6.82129 3.13184 6.19629 3.75684C5.60254 4.35059 5.30566 5.06934 5.30566 5.91309V7.92871H11.4932ZM6.99316 16.3193C7.39941 16.7256 7.86816 16.9287 8.39941 16.9287C8.93066 16.9287 9.39941 16.7256 9.80566 16.3193C10.2119 15.9131 10.415 15.4443 10.415 14.9131C10.415 14.3818 10.2119 13.9131 9.80566 13.5068C9.39941 13.1006 8.93066 12.8975 8.39941 12.8975C7.86816 12.8975 7.39941 13.1006 6.99316 13.5068C6.58691 13.9131 6.38379 14.3818 6.38379 14.9131C6.38379 15.4443 6.58691 15.9131 6.99316 16.3193ZM14.3994 7.92871C14.9307 7.92871 15.3994 8.13184 15.8057 8.53809C16.2119 8.91309 16.415 9.36621 16.415 9.89746V19.9287C16.415 20.46 16.2119 20.9287 15.8057 21.335C15.3994 21.71 14.9307 21.8975 14.3994 21.8975H2.39941C1.86816 21.8975 1.39941 21.71 0.993164 21.335C0.586914 20.9287 0.383789 20.46 0.383789 19.9287V9.89746C0.383789 9.36621 0.586914 8.91309 0.993164 8.53809C1.39941 8.13184 1.86816 7.92871 2.39941 7.92871H3.38379V5.91309C3.38379 4.53809 3.86816 3.36621 4.83691 2.39746C5.83691 1.39746 7.02441 0.897461 8.39941 0.897461C9.77441 0.897461 10.9463 1.39746 11.915 2.39746C12.915 3.36621 13.415 4.53809 13.415 5.91309V7.92871H14.3994Z" fill="#0B2166" fill-opacity="0.6"/>
</svg>
