<svg width="17" height="21" viewBox="0 0 17 21" fill="none" xmlns="http://www.w3.org/2000/svg">
<path d="M14.6365 14.3025L16.6521 16.3181V17.3025H0.62085V16.3181L2.63647 14.3025V9.33374C2.63647 7.77124 3.0271 6.41187 3.80835 5.25562C4.62085 4.09937 5.73022 3.34937 7.13647 3.00562V2.30249C7.13647 1.89624 7.2771 1.55249 7.55835 1.27124C7.8396 0.95874 8.19897 0.80249 8.63647 0.80249C9.07397 0.80249 9.43335 0.95874 9.7146 1.27124C9.99585 1.55249 10.1365 1.89624 10.1365 2.30249V3.00562C11.5427 3.34937 12.6365 4.09937 13.4177 5.25562C14.2302 6.41187 14.6365 7.77124 14.6365 9.33374V14.3025ZM8.63647 20.3025C8.07397 20.3025 7.5896 20.115 7.18335 19.74C6.80835 19.365 6.62085 18.8962 6.62085 18.3337H10.6521C10.6521 18.865 10.449 19.3337 10.0427 19.74C9.63647 20.115 9.16772 20.3025 8.63647 20.3025Z" fill="#D9D9D9"/>
</svg>
